<mxfile host="65bd71144e">
    <diagram id="0FSctVhR1yP0zTSBk6uW" name="Page-1">
        <mxGraphModel dx="1729" dy="413" grid="1" gridSize="10" guides="1" tooltips="1" connect="1" arrows="1" fold="1" page="1" pageScale="1" pageWidth="827" pageHeight="1169" math="0" shadow="0">
            <root>
                <mxCell id="0"/>
                <mxCell id="1" parent="0"/>
                <mxCell id="4" value="" style="edgeStyle=none;html=1;" parent="1" source="2" target="3" edge="1">
                    <mxGeometry relative="1" as="geometry"/>
                </mxCell>
                <mxCell id="2" value="PESO.ALTURA" style="shape=parallelogram;perimeter=parallelogramPerimeter;whiteSpace=wrap;html=1;fixedSize=1;fillColor=#CC0066;" parent="1" vertex="1">
                    <mxGeometry x="370" y="30" width="110" height="40" as="geometry"/>
                </mxCell>
                <mxCell id="6" value="" style="edgeStyle=none;html=1;" parent="1" source="3" target="5" edge="1">
                    <mxGeometry relative="1" as="geometry"/>
                </mxCell>
                <mxCell id="3" value="IMC= Peso[Kg]&lt;br&gt;Altura=[m]" style="ellipse;shape=cloud;whiteSpace=wrap;html=1;fillColor=#CC0066;" parent="1" vertex="1">
                    <mxGeometry x="365" y="100" width="115" height="60" as="geometry"/>
                </mxCell>
                <mxCell id="9" value="" style="edgeStyle=none;html=1;" parent="1" source="5" target="8" edge="1">
                    <mxGeometry relative="1" as="geometry">
                        <Array as="points">
                            <mxPoint x="280" y="205"/>
                        </Array>
                    </mxGeometry>
                </mxCell>
                <mxCell id="13" value="" style="edgeStyle=none;html=1;" parent="1" source="5" target="12" edge="1">
                    <mxGeometry relative="1" as="geometry"/>
                </mxCell>
                <mxCell id="5" value="IMC&amp;lt;16" style="rhombus;whiteSpace=wrap;html=1;fillColor=#CC6600;" parent="1" vertex="1">
                    <mxGeometry x="370" y="180" width="100" height="50" as="geometry"/>
                </mxCell>
                <mxCell id="11" value="" style="edgeStyle=none;html=1;" parent="1" source="8" target="10" edge="1">
                    <mxGeometry relative="1" as="geometry">
                        <Array as="points">
                            <mxPoint x="190" y="270"/>
                        </Array>
                    </mxGeometry>
                </mxCell>
                <mxCell id="14" value="" style="edgeStyle=none;html=1;" parent="1" source="8" target="15" edge="1">
                    <mxGeometry relative="1" as="geometry">
                        <mxPoint x="360" y="260" as="targetPoint"/>
                    </mxGeometry>
                </mxCell>
                <mxCell id="8" value="IMC&amp;lt;-17" style="rhombus;whiteSpace=wrap;html=1;fillColor=#CC6600;" parent="1" vertex="1">
                    <mxGeometry x="240" y="230" width="80" height="70" as="geometry"/>
                </mxCell>
                <mxCell id="17" value="" style="edgeStyle=none;html=1;" parent="1" source="10" target="16" edge="1">
                    <mxGeometry relative="1" as="geometry"/>
                </mxCell>
                <mxCell id="19" value="" style="edgeStyle=none;html=1;" edge="1" parent="1" source="10" target="18">
                    <mxGeometry relative="1" as="geometry">
                        <Array as="points">
                            <mxPoint x="100" y="340"/>
                        </Array>
                    </mxGeometry>
                </mxCell>
                <mxCell id="10" value="IMC&amp;lt;-18" style="rhombus;whiteSpace=wrap;html=1;fillColor=#CC6600;" parent="1" vertex="1">
                    <mxGeometry x="150" y="300" width="90" height="80" as="geometry"/>
                </mxCell>
                <mxCell id="45" value="" style="edgeStyle=none;html=1;entryX=0.5;entryY=0;entryDx=0;entryDy=0;" edge="1" parent="1" source="12" target="43">
                    <mxGeometry relative="1" as="geometry">
                        <mxPoint x="250" y="870" as="targetPoint"/>
                        <Array as="points">
                            <mxPoint x="600" y="840"/>
                            <mxPoint x="250" y="840"/>
                        </Array>
                    </mxGeometry>
                </mxCell>
                <mxCell id="12" value="Resultado" style="whiteSpace=wrap;html=1;fillColor=#66CC00;" parent="1" vertex="1">
                    <mxGeometry x="540" y="180" width="110" height="60" as="geometry"/>
                </mxCell>
                <mxCell id="15" value="Resultado&amp;nbsp;" style="rounded=0;whiteSpace=wrap;html=1;fillColor=#66CC00;" parent="1" vertex="1">
                    <mxGeometry x="361" y="250" width="89" height="50" as="geometry"/>
                </mxCell>
                <mxCell id="16" value="Resultado" style="whiteSpace=wrap;html=1;fillColor=#66CC00;" parent="1" vertex="1">
                    <mxGeometry x="290" y="320" width="90" height="40" as="geometry"/>
                </mxCell>
                <mxCell id="21" value="" style="edgeStyle=none;html=1;" edge="1" parent="1" source="18" target="20">
                    <mxGeometry relative="1" as="geometry">
                        <Array as="points">
                            <mxPoint x="10" y="400"/>
                        </Array>
                    </mxGeometry>
                </mxCell>
                <mxCell id="42" value="" style="edgeStyle=none;html=1;" edge="1" parent="1" source="18" target="32">
                    <mxGeometry relative="1" as="geometry">
                        <Array as="points">
                            <mxPoint x="210" y="400"/>
                        </Array>
                    </mxGeometry>
                </mxCell>
                <mxCell id="18" value="IMC&amp;lt;-25" style="rhombus;whiteSpace=wrap;html=1;fillColor=#FF8000;" vertex="1" parent="1">
                    <mxGeometry x="60" y="360" width="80" height="80" as="geometry"/>
                </mxCell>
                <mxCell id="23" value="" style="edgeStyle=none;html=1;" edge="1" parent="1" source="20" target="22">
                    <mxGeometry relative="1" as="geometry">
                        <Array as="points">
                            <mxPoint x="-80" y="470"/>
                        </Array>
                    </mxGeometry>
                </mxCell>
                <mxCell id="41" value="" style="edgeStyle=none;html=1;" edge="1" parent="1" source="20" target="34">
                    <mxGeometry relative="1" as="geometry">
                        <Array as="points">
                            <mxPoint x="140" y="470"/>
                        </Array>
                    </mxGeometry>
                </mxCell>
                <mxCell id="20" value="IMC&amp;lt;-30" style="rhombus;whiteSpace=wrap;html=1;fillColor=#FF8000;" vertex="1" parent="1">
                    <mxGeometry x="-30" y="430" width="80" height="80" as="geometry"/>
                </mxCell>
                <mxCell id="25" value="" style="edgeStyle=none;html=1;" edge="1" parent="1" source="22" target="24">
                    <mxGeometry relative="1" as="geometry">
                        <Array as="points">
                            <mxPoint x="-150" y="540"/>
                        </Array>
                    </mxGeometry>
                </mxCell>
                <mxCell id="40" value="" style="edgeStyle=none;html=1;" edge="1" parent="1" source="22" target="35">
                    <mxGeometry relative="1" as="geometry">
                        <Array as="points">
                            <mxPoint x="50" y="540"/>
                        </Array>
                    </mxGeometry>
                </mxCell>
                <mxCell id="22" value="IMC&amp;lt;=35" style="rhombus;whiteSpace=wrap;html=1;fillColor=#FF8000;" vertex="1" parent="1">
                    <mxGeometry x="-120" y="500" width="80" height="80" as="geometry"/>
                </mxCell>
                <mxCell id="28" value="" style="edgeStyle=none;html=1;" edge="1" parent="1" source="24" target="27">
                    <mxGeometry relative="1" as="geometry">
                        <Array as="points">
                            <mxPoint x="-220" y="600"/>
                        </Array>
                    </mxGeometry>
                </mxCell>
                <mxCell id="39" value="" style="edgeStyle=none;html=1;" edge="1" parent="1" source="24" target="36">
                    <mxGeometry relative="1" as="geometry">
                        <Array as="points">
                            <mxPoint x="-50" y="600"/>
                        </Array>
                    </mxGeometry>
                </mxCell>
                <mxCell id="24" value="IMC&amp;lt;40" style="rhombus;whiteSpace=wrap;html=1;fillColor=#FF8000;" vertex="1" parent="1">
                    <mxGeometry x="-190" y="560" width="80" height="80" as="geometry"/>
                </mxCell>
                <mxCell id="38" value="" style="edgeStyle=none;html=1;" edge="1" parent="1" source="27" target="37">
                    <mxGeometry relative="1" as="geometry">
                        <Array as="points">
                            <mxPoint x="-110" y="680"/>
                        </Array>
                    </mxGeometry>
                </mxCell>
                <mxCell id="50" value="" style="edgeStyle=none;html=1;" edge="1" parent="1" source="27" target="49">
                    <mxGeometry relative="1" as="geometry">
                        <Array as="points">
                            <mxPoint x="-380" y="680"/>
                            <mxPoint x="-380" y="850"/>
                            <mxPoint x="250" y="840"/>
                        </Array>
                    </mxGeometry>
                </mxCell>
                <mxCell id="27" value="IMC&amp;gt;40" style="rhombus;whiteSpace=wrap;html=1;fillColor=#FF8000;" vertex="1" parent="1">
                    <mxGeometry x="-260" y="640" width="80" height="80" as="geometry"/>
                </mxCell>
                <mxCell id="32" value="Resultado" style="whiteSpace=wrap;html=1;fillColor=#66CC00;" vertex="1" parent="1">
                    <mxGeometry x="160" y="410" width="100" height="50" as="geometry"/>
                </mxCell>
                <mxCell id="34" value="Resultado" style="rounded=0;whiteSpace=wrap;html=1;fillColor=#66CC00;" vertex="1" parent="1">
                    <mxGeometry x="100" y="480" width="100" height="50" as="geometry"/>
                </mxCell>
                <mxCell id="35" value="Resultado" style="rounded=0;whiteSpace=wrap;html=1;fillColor=#66CC00;" vertex="1" parent="1">
                    <mxGeometry x="-10" y="550" width="120" height="50" as="geometry"/>
                </mxCell>
                <mxCell id="36" value="Resultado" style="rounded=0;whiteSpace=wrap;html=1;fillColor=#80FF00;" vertex="1" parent="1">
                    <mxGeometry x="-100" y="620" width="110" height="50" as="geometry"/>
                </mxCell>
                <mxCell id="47" value="" style="edgeStyle=none;html=1;entryX=0.5;entryY=0;entryDx=0;entryDy=0;startArrow=none;" edge="1" parent="1" source="49" target="43">
                    <mxGeometry relative="1" as="geometry">
                        <mxPoint x="-110" y="850" as="targetPoint"/>
                    </mxGeometry>
                </mxCell>
                <mxCell id="37" value="Resultado" style="rounded=0;whiteSpace=wrap;html=1;fillColor=#80FF00;" vertex="1" parent="1">
                    <mxGeometry x="-170" y="720" width="120" height="40" as="geometry"/>
                </mxCell>
                <mxCell id="62" value="" style="edgeStyle=none;html=1;" edge="1" parent="1" source="43" target="61">
                    <mxGeometry relative="1" as="geometry"/>
                </mxCell>
                <mxCell id="43" value="PRINT&lt;br&gt;(Resultado)" style="shape=document;whiteSpace=wrap;html=1;boundedLbl=1;fillColor=#CC0066;" vertex="1" parent="1">
                    <mxGeometry x="190" y="870" width="120" height="80" as="geometry"/>
                </mxCell>
                <mxCell id="49" value="" style="shape=waypoint;sketch=0;size=6;pointerEvents=1;points=[];fillColor=#FF8000;resizable=0;rotatable=0;perimeter=centerPerimeter;snapToPoint=1;" vertex="1" parent="1">
                    <mxGeometry x="240" y="860" width="20" height="20" as="geometry"/>
                </mxCell>
                <mxCell id="61" value="" style="whiteSpace=wrap;html=1;fillColor=#CC0066;" vertex="1" parent="1">
                    <mxGeometry x="190" y="990" width="120" height="60" as="geometry"/>
                </mxCell>
            </root>
        </mxGraphModel>
    </diagram>
</mxfile>